<svg width="21" height="18" viewBox="0 0 21 18" fill="none" xmlns="http://www.w3.org/2000/svg">
<path d="M8.57492 3.75H5.24385C6.43427 2.30902 8.2305 1.5 10.3249 1.5C14.1909 1.5 17.3249 4.18629 17.3249 7.5H19.0749C19.0749 3.35786 15.1574 0 10.3249 0C7.87122 0 5.70939 0.886884 4.19992 2.45276V0H2.44992V5.25H8.57492V3.75Z" fill="white"/>
<path d="M12.25 14.2509H15.5811C14.3907 15.6918 12.5944 16.5009 10.5 16.5009C6.63401 16.5009 3.5 13.8146 3.5 10.5009H1.75C1.75 14.643 5.66751 18.0009 10.5 18.0009C12.9537 18.0009 15.1155 17.114 16.625 15.5481V18.0009H18.375V12.7509H12.25V14.2509Z" fill="white"/>
</svg>
