<svg width="100" height="31" viewBox="0 0 100 31" fill="none" xmlns="http://www.w3.org/2000/svg">
<g filter="url(#filter0_b_3385_12048)">
<path d="M95 0C97.7614 0 100 2.23858 100 5V26C100 28.7614 97.7614 31 95 31L5 31C2.23858 31 0 28.7614 0 26V5C0 2.23858 2.23859 0 5.00001 0L84.3458 0L95 0Z" fill="#FDFDFD" fill-opacity="0.3"/>
<path d="M99.5 5C99.5 2.51472 97.4853 0.5 95 0.5L84.3458 0.5L5.00001 0.5C2.51472 0.5 0.5 2.51472 0.5 5V26C0.5 28.4853 2.51472 30.5 5 30.5L95 30.5C97.4853 30.5 99.5 28.4853 99.5 26V5Z" stroke="url(#paint0_linear_3385_12048)"/>
</g>
<defs>
<filter id="filter0_b_3385_12048" x="-80" y="-80" width="260" height="191" filterUnits="userSpaceOnUse" color-interpolation-filters="sRGB">
<feFlood flood-opacity="0" result="BackgroundImageFix"/>
<feGaussianBlur in="BackgroundImageFix" stdDeviation="40"/>
<feComposite in2="SourceAlpha" operator="in" result="effect1_backgroundBlur_3385_12048"/>
<feBlend mode="normal" in="SourceGraphic" in2="effect1_backgroundBlur_3385_12048" result="shape"/>
</filter>
<linearGradient id="paint0_linear_3385_12048" x1="100" y1="15.4864" x2="0" y2="15.4864" gradientUnits="userSpaceOnUse">
<stop stop-color="#636363"/>
<stop offset="0.26" stop-color="#E1E1E1"/>
<stop offset="0.37" stop-color="white"/>
<stop offset="0.48" stop-color="#DFDFDF"/>
<stop offset="0.52" stop-color="#B1B1B1"/>
<stop offset="0.57" stop-color="#8E8E8E"/>
<stop offset="0.61" stop-color="#747474"/>
<stop offset="0.64" stop-color="#646464"/>
<stop offset="0.67" stop-color="#5F5F5F"/>
<stop offset="0.71" stop-color="#656565"/>
<stop offset="0.76" stop-color="#767676"/>
<stop offset="0.82" stop-color="#939393"/>
<stop offset="0.89" stop-color="#BABABA"/>
<stop offset="0.92" stop-color="#D3D3D3"/>
<stop offset="0.94" stop-color="#DBDBDB"/>
<stop offset="1" stop-color="#F3F3F3"/>
</linearGradient>
</defs>
</svg>
