<svg width="576" height="566" viewBox="0 0 576 566" fill="none" xmlns="http://www.w3.org/2000/svg">
<path d="M317.128 3.19147C358.42 -5.62752 401.273 8.34704 429.427 39.8132L487.025 104.186L544.887 168.323C573.171 199.673 582.495 243.771 569.321 283.887L542.372 365.955L515.759 448.133C502.751 488.303 469.222 518.427 427.894 527.076L343.347 544.771L258.872 562.813C217.58 571.632 174.728 557.657 146.573 526.191L88.9748 461.818L31.1129 397.682C2.82944 366.331 -6.49438 322.233 6.67881 282.117L33.6283 200.049L60.241 117.871C73.2495 77.7017 106.778 47.5778 148.106 38.9283L232.654 21.2332L317.128 3.19147Z" fill="#101010"/>
</svg>
